<svg id="visual" viewBox="0 0 900 600" width="900" height="600" xmlns="http://www.w3.org/2000/svg" xmlns:xlink="http://www.w3.org/1999/xlink" version="1.1"><path d="M0 422L21.5 415.8C43 409.7 86 397.3 128.8 405.3C171.7 413.3 214.3 441.7 257.2 455.5C300 469.3 343 468.7 385.8 461.3C428.7 454 471.3 440 514.2 434.2C557 428.3 600 430.7 642.8 443.7C685.7 456.7 728.3 480.3 771.2 481.8C814 483.3 857 462.7 878.5 452.3L900 442L900 601L878.5 601C857 601 814 601 771.2 601C728.3 601 685.7 601 642.8 601C600 601 557 601 514.2 601C471.3 601 428.7 601 385.8 601C343 601 300 601 257.2 601C214.3 601 171.7 601 128.8 601C86 601 43 601 21.5 601L0 601Z" fill="#111827" stroke-linecap="round" stroke-linejoin="miter"></path></svg>